<svg xmlns="http://www.w3.org/2000/svg" viewBox="0 0 333.12 226.49"><defs><style>.cls-1{fill:#ff7400;}</style></defs><title>Asset 2</title><g id="Layer_2" data-name="Layer 2"><g id="Graphic_Elements" data-name="Graphic Elements"><polygon class="cls-1" points="333.12 113.24 313.63 124.05 328.63 139.54 306.44 144.8 316.01 163.4 293.03 163.35 297.37 183.46 274.96 178.95 274.74 199.44 253.62 191.35 249.52 211.52 230.1 200.54 222.65 219.93 205.2 206.58 194.82 224.87 179.53 209.56 166.56 226.49 153.59 209.56 138.3 224.87 127.92 206.58 110.47 219.93 103.01 200.54 83.6 211.52 79.5 191.35 58.38 199.44 58.16 178.95 35.74 183.46 40.08 163.34 17.11 163.4 26.68 144.8 4.49 139.54 19.48 124.05 0 113.24 19.48 102.44 4.49 86.95 26.68 81.69 17.11 63.08 40.08 63.14 35.74 43.03 58.16 47.54 58.38 27.05 79.5 35.13 83.6 14.97 103.01 25.95 110.47 6.56 127.92 19.91 138.3 1.62 153.59 16.93 166.56 0 179.53 16.93 194.82 1.62 205.2 19.91 222.65 6.56 230.1 25.95 249.52 14.97 253.62 35.13 274.74 27.05 274.96 47.54 297.38 43.03 293.04 63.14 316.01 63.08 306.44 81.69 328.63 86.95 313.63 102.44 333.12 113.24"/></g></g></svg>