<svg xmlns="http://www.w3.org/2000/svg" viewBox="0 0 265.96 264.62"><defs><style>.cls-1{fill:#ff7400;}</style></defs><title>Asset 5</title><g id="Layer_2" data-name="Layer 2"><g id="Graphic_Elements" data-name="Graphic Elements"><path class="cls-1" d="M133,56.18c0-82.46-64-68.85-30.14,6.4C68.93-12.67,16,25.82,77.91,80.7,16,25.82-16.8,82.53,62.5,107.39-16.8,82.53-23.64,147.66,59.28,138c-82.92,9.63-62.68,71.91,9.52,29.31-72.2,42.6-28.39,91.27,20.62,22.9-49,68.37,10.82,95,28.15,12.54-17.33,82.46,48.15,82.46,30.82,0,17.33,82.46,77.16,55.83,28.15-12.54,49,68.37,92.82,19.7,20.62-22.9,72.2,42.6,92.44-19.68,9.52-29.31,82.92,9.63,76.08-55.5-3.22-30.64C282.76,82.53,250,25.82,188.05,80.7c62-54.88,9-93.37-24.93-18.12C197-12.67,133-26.28,133,56.18Z"/></g></g></svg>