<svg xmlns="http://www.w3.org/2000/svg" viewBox="0 0 283.14 283.14"><defs><style>.cls-1{fill:#fcca23;}</style></defs><title>Asset 3</title><g id="Layer_2" data-name="Layer 2"><g id="Graphic_Elements" data-name="Graphic Elements"><polygon class="cls-1" points="283.14 138.3 166.4 138.3 279.16 108.09 277.47 101.77 164.7 131.99 265.81 73.61 262.54 67.95 161.43 126.33 243.99 43.77 239.37 39.15 156.81 121.7 215.19 20.6 209.53 17.33 151.15 118.44 181.37 5.67 175.06 3.98 144.84 116.75 144.84 0 138.3 0 138.3 116.74 108.09 3.98 101.77 5.67 131.99 118.44 73.62 17.33 67.95 20.6 126.33 121.7 43.78 39.15 39.16 43.77 121.71 126.33 20.6 67.95 17.33 73.61 118.44 131.99 5.67 101.77 3.98 108.09 116.75 138.3 0 138.3 0 144.84 116.75 144.84 3.98 175.05 5.67 181.37 118.44 151.15 17.33 209.52 20.6 215.18 121.71 156.81 39.16 239.36 43.78 243.99 126.33 161.43 67.95 262.54 73.62 265.81 131.99 164.7 101.77 277.47 108.09 279.16 138.3 166.4 138.3 283.14 144.84 283.14 144.84 166.39 175.06 279.16 181.37 277.47 151.15 164.7 209.53 265.81 215.19 262.54 156.81 161.43 239.37 243.99 243.99 239.36 161.43 156.81 262.54 215.18 265.81 209.52 164.71 151.15 277.47 181.37 279.16 175.05 166.4 144.84 283.14 144.84 283.14 138.3"/></g></g></svg>